<?xml version="1.0" encoding="UTF-8"?>
<svg viewBox="0 0 400 400" xmlns="http://www.w3.org/2000/svg">
  <!-- Define the pattern that will repeat -->
  <defs>
    <pattern id="aztecPattern" patternUnits="userSpaceOnUse" width="100" height="100">
      <!-- Background is transparent -->
      
      <!-- Aztec sun symbol -->
      <circle cx="50" cy="50" r="15" fill="none" stroke="#000000" stroke-width="1.5"/>
      <circle cx="50" cy="50" r="8" fill="none" stroke="#000000" stroke-width="1"/>
      <line x1="50" y1="25" x2="50" y2="35" stroke="#000000" stroke-width="1.5"/>
      <line x1="50" y1="65" x2="50" y2="75" stroke="#000000" stroke-width="1.5"/>
      <line x1="25" y1="50" x2="35" y2="50" stroke="#000000" stroke-width="1.5"/>
      <line x1="65" y1="50" x2="75" y2="50" stroke="#000000" stroke-width="1.5"/>
      <line x1="33" y1="33" x2="40" y2="40" stroke="#000000" stroke-width="1.5"/>
      <line x1="60" y1="60" x2="67" y2="67" stroke="#000000" stroke-width="1.5"/>
      <line x1="33" y1="67" x2="40" y2="60" stroke="#000000" stroke-width="1.5"/>
      <line x1="60" y1="40" x2="67" y2="33" stroke="#000000" stroke-width="1.5"/>

      <!-- Aztec zigzag border -->
      <polyline points="0,0 10,10 0,20 10,30 0,40 10,50 0,60 10,70 0,80 10,90 0,100" 
                fill="none" stroke="#000000" stroke-width="1.5"/>
      <polyline points="100,0 90,10 100,20 90,30 100,40 90,50 100,60 90,70 100,80 90,90 100,100" 
                fill="none" stroke="#000000" stroke-width="1.5"/>
      <polyline points="0,0 10,10 20,0 30,10 40,0 50,10 60,0 70,10 80,0 90,10 100,0" 
                fill="none" stroke="#000000" stroke-width="1.5"/>
      <polyline points="0,100 10,90 20,100 30,90 40,100 50,90 60,100 70,90 80,100 90,90 100,100" 
                fill="none" stroke="#000000" stroke-width="1.5"/>

      <!-- Aztec stepped pyramid symbol -->
      <path d="M20,85 L20,80 L25,80 L25,75 L30,75 L30,70 L25,70 L25,65 L20,65 L20,60 L15,60 L15,85 Z" 
            fill="none" stroke="#000000" stroke-width="1"/>
            
      <!-- Aztec geometric element -->
      <path d="M75,15 L85,15 L85,25 L75,25 Z" fill="none" stroke="#000000" stroke-width="1"/>
      <path d="M78,18 L82,18 L82,22 L78,22 Z" fill="none" stroke="#000000" stroke-width="1"/>
      
      <!-- Decorative corner elements -->
      <path d="M5,5 L10,5 L10,10 L5,10 Z" fill="none" stroke="#000000" stroke-width="1"/>
      <path d="M90,5 L95,5 L95,10 L90,10 Z" fill="none" stroke="#000000" stroke-width="1"/>
      <path d="M5,90 L10,90 L10,95 L5,95 Z" fill="none" stroke="#000000" stroke-width="1"/>
      <path d="M90,90 L95,90 L95,95 L90,95 Z" fill="none" stroke="#000000" stroke-width="1"/>
    </pattern>
  </defs>
  
  <!-- Apply the pattern to a rectangle covering the whole SVG -->
  <rect width="400" height="400" fill="url(#aztecPattern)" />
</svg>