<?xml version="1.0" encoding="UTF-8"?>
<svg viewBox="0 0 400 400" xmlns="http://www.w3.org/2000/svg">
  <!-- Define the pattern that will repeat -->
  <defs>
    <pattern id="egyptPattern" patternUnits="userSpaceOnUse" width="100" height="100">
      <!-- Background is transparent -->
      
      <!-- Pyramid -->
      <path d="M50,10 L30,40 L70,40 Z" fill="none" stroke="#000000" stroke-width="1.5"/>
      
      <!-- Ankh symbol -->
      <path d="M20,60 L20,70 M15,65 L25,65 M20,70 Q25,75 25,80 Q20,85 15,80 Q15,75 20,70" 
            fill="none" stroke="#000000" stroke-width="1.5"/>
      
      <!-- Eye of Horus -->
      <path d="M80,60 Q75,55 70,60 Q70,65 80,65 Q85,63 80,60 Z" fill="none" stroke="#000000" stroke-width="1.5"/>
      <circle cx="75" cy="60" r="1.5" stroke="#000000" stroke-width="1"/>
      <path d="M70,62 L65,66" stroke="#000000" stroke-width="1.5"/>
      
      <!-- Scarab beetle -->
      <ellipse cx="50" cy="80" rx="10" ry="7" fill="none" stroke="#000000" stroke-width="1"/>
      <path d="M45,74 L40,70 M55,74 L60,70" stroke="#000000" stroke-width="1"/>
      <path d="M45,80 Q50,77 55,80" stroke="#000000" stroke-width="1" fill="none"/>
      
      <!-- Lotus flower -->
      <path d="M15,15 Q18,8 20,15 Q22,8 25,15" fill="none" stroke="#000000" stroke-width="1"/>
      <path d="M15,15 Q20,18 25,15" fill="none" stroke="#000000" stroke-width="1"/>
      <line x1="20" y1="15" x2="20" y2="20" stroke="#000000" stroke-width="1"/>
      
      <!-- Hieroglyphic-inspired patterns -->
      <path d="M85,85 L90,85 L90,90 L85,90 Z" fill="none" stroke="#000000" stroke-width="1"/>
      <path d="M80,85 L80,90" stroke="#000000" stroke-width="1"/>
      <path d="M75,87 L78,87" stroke="#000000" stroke-width="1"/>
      <path d="M72,85 L72,90 L70,87 L68,90 L68,85" fill="none" stroke="#000000" stroke-width="1"/>
      
      <!-- Egyptian column -->
      <path d="M92,15 L92,35 M90,15 L94,15 M90,35 L94,35" fill="none" stroke="#000000" stroke-width="1"/>
      <path d="M90,15 Q92,10 94,15" fill="none" stroke="#000000" stroke-width="1"/>
      
      <!-- Sun disk with rays (Ra symbol) -->
      <circle cx="80" cy="45" r="5" fill="none" stroke="#000000" stroke-width="1"/>
      <line x1="80" y1="38" x2="80" y2="36" stroke="#000000" stroke-width="1"/>
      <line x1="85" y1="40" x2="87" y2="38" stroke="#000000" stroke-width="1"/>
      <line x1="85" y1="50" x2="87" y2="52" stroke="#000000" stroke-width="1"/>
      <line x1="75" y1="40" x2="73" y2="38" stroke="#000000" stroke-width="1"/>
      <line x1="75" y1="50" x2="73" y2="52" stroke="#000000" stroke-width="1"/>
      <line x1="87" y1="45" x2="89" y2="45" stroke="#000000" stroke-width="1"/>
      <line x1="71" y1="45" x2="73" y2="45" stroke="#000000" stroke-width="1"/>
      
      <!-- Decorative border element -->
      <path d="M0,25 L5,25 L5,30 L10,30 L10,25 L15,25 L15,30 L20,30 L20,25 L25,25" 
            fill="none" stroke="#000000" stroke-width="1"/>
      
      <!-- Wave pattern (Nile river) -->
      <path d="M0,95 Q5,92 10,95 Q15,98 20,95 Q25,92 30,95" 
            fill="none" stroke="#000000" stroke-width="1"/>
      
      <!-- Pyramid border pattern -->
      <path d="M35,0 L40,5 L45,0 M55,0 L60,5 L65,0 M75,0 L80,5 L85,0" 
            fill="none" stroke="#000000" stroke-width="1"/>
    </pattern>
  </defs>
  
  <!-- Apply the pattern to a rectangle covering the whole SVG -->
  <rect width="400" height="400" fill="url(#egyptPattern)" />
</svg>