<?xml version="1.0" encoding="UTF-8"?>
<svg viewBox="0 0 400 400" xmlns="http://www.w3.org/2000/svg">
  <!-- Define the pattern that will repeat -->
  <defs>
    <pattern id="firePattern" patternUnits="userSpaceOnUse" width="100" height="100">
      <!-- Background is transparent -->
      
      <!-- Large flame -->
      <path d="M50,10 Q45,25 50,30 Q55,25 50,10 Z" fill="none" stroke="#000000" stroke-width="1.5"/>
      <path d="M50,10 Q48,20 50,25 Q52,20 50,10 Z" fill="none" stroke="#000000" stroke-width="1"/>
      
      <!-- Fire spiral -->
      <path d="M20,40 Q25,35 25,30 Q20,25 15,30 Q15,35 20,40 Q25,45 30,40 Q35,35 30,30" 
            fill="none" stroke="#000000" stroke-width="1.5"/>
      
      <!-- Ember/spark elements -->
      <circle cx="15" cy="15" r="2" fill="none" stroke="#000000" stroke-width="1"/>
      <circle cx="80" cy="25" r="1.5" fill="none" stroke="#000000" stroke-width="1"/>
      <circle cx="70" cy="60" r="2" fill="none" stroke="#000000" stroke-width="1"/>
      <circle cx="35" cy="80" r="1.5" fill="none" stroke="#000000" stroke-width="1"/>
      <circle cx="90" cy="85" r="2" fill="none" stroke="#000000" stroke-width="1"/>
      
      <!-- Rising heat lines -->
      <path d="M10,90 Q12,80 10,70" fill="none" stroke="#000000" stroke-width="0.8"/>
      <path d="M18,90 Q16,75 18,60" fill="none" stroke="#000000" stroke-width="0.8"/>
      <path d="M25,90 Q28,75 25,60" fill="none" stroke="#000000" stroke-width="0.8"/>
      
      <!-- Small flame cluster -->
      <path d="M75,80 Q73,73 75,70 Q77,73 75,80 Z" fill="none" stroke="#000000" stroke-width="1"/>
      <path d="M80,78 Q78,70 80,67 Q82,70 80,78 Z" fill="none" stroke="#000000" stroke-width="1"/>
      <path d="M70,78 Q68,72 70,69 Q72,72 70,78 Z" fill="none" stroke="#000000" stroke-width="1"/>
      
      <!-- Phoenix-like flame bird -->
      <path d="M90,40 Q85,37 80,40 Q83,42 80,45 Q85,43 90,40 Z" fill="none" stroke="#000000" stroke-width="1"/>
      <path d="M80,40 Q75,35 70,40 Q75,42 80,40 Z" fill="none" stroke="#000000" stroke-width="1"/>
      
      <!-- Fire vortex -->
      <path d="M50,60 Q45,55 45,50 Q50,45 55,50 Q55,55 50,60 Z" fill="none" stroke="#000000" stroke-width="1.5"/>
      <path d="M50,65 Q40,55 45,45 Q50,40 55,45 Q60,55 50,65 Z" fill="none" stroke="#000000" stroke-width="1"/>
      
      <!-- Campfire logs -->
      <path d="M30,95 L40,90 M35,95 L45,90" fill="none" stroke="#000000" stroke-width="1.5"/>
      <path d="M60,95 L50,90 M55,95 L45,90" fill="none" stroke="#000000" stroke-width="1.5"/>
      
      <!-- Fire rune/symbol -->
      <path d="M5,40 L10,35 L5,30 L10,25 L5,20" fill="none" stroke="#000000" stroke-width="1"/>
      <path d="M5,30 L10,30" fill="none" stroke="#000000" stroke-width="1"/>
      
      <!-- Sun/fire rays -->
      <path d="M95,10 L90,5 M95,10 L100,5 M95,10 L95,5" fill="none" stroke="#000000" stroke-width="1"/>
      
      <!-- Match stick -->
      <path d="M65,15 L60,25 M60,25 Q62,20 65,15 Z" fill="none" stroke="#000000" stroke-width="1"/>
      <line x1="60" y1="25" x2="58" y2="35" stroke="#000000" stroke-width="0.8"/>
    </pattern>
  </defs>
  
  <!-- Apply the pattern to a rectangle covering the whole SVG -->
  <rect width="400" height="400" fill="url(#firePattern)" />
</svg>